<mxfile host="Electron" modified="2023-12-07T12:25:47.671Z" agent="Mozilla/5.0 (Windows NT 10.0; Win64; x64) AppleWebKit/537.36 (KHTML, like Gecko) draw.io/21.7.5 Chrome/114.0.5735.289 Electron/25.8.1 Safari/537.36" etag="22OBifE8JAJWcaGWdRRi" version="21.7.5" type="device">
  <diagram name="第 1 页" id="1tjPoBJc8Thy26ZkegWS">
    <mxGraphModel dx="880" dy="524" grid="1" gridSize="10" guides="1" tooltips="1" connect="1" arrows="1" fold="1" page="1" pageScale="1" pageWidth="827" pageHeight="1169" math="0" shadow="0">
      <root>
        <mxCell id="0" />
        <mxCell id="1" parent="0" />
        <mxCell id="IqdXkhWM3qFWjXO3zx5M-1" value="" style="rounded=1;whiteSpace=wrap;html=1;fillColor=#ffe6cc;strokeColor=#d79b00;" parent="1" vertex="1">
          <mxGeometry x="170" y="70" width="120" height="260" as="geometry" />
        </mxCell>
        <mxCell id="IqdXkhWM3qFWjXO3zx5M-2" value="" style="rounded=1;whiteSpace=wrap;html=1;fillColor=#dae8fc;strokeColor=#6c8ebf;align=center;" parent="1" vertex="1">
          <mxGeometry x="470" y="70" width="120" height="260" as="geometry" />
        </mxCell>
        <mxCell id="IqdXkhWM3qFWjXO3zx5M-3" value="pdf2htmlEX&lt;br&gt;container" style="rounded=1;whiteSpace=wrap;html=1;fillColor=#fff2cc;strokeColor=#d6b656;" parent="1" vertex="1">
          <mxGeometry x="480" y="260" width="100" height="50" as="geometry" />
        </mxCell>
        <mxCell id="IqdXkhWM3qFWjXO3zx5M-5" value="Converter&lt;br style=&quot;border-color: var(--border-color);&quot;&gt;server" style="ellipse;shape=cloud;whiteSpace=wrap;html=1;fillColor=#d5e8d4;strokeColor=#82b366;" parent="1" vertex="1">
          <mxGeometry x="480" y="140" width="100" height="66.66" as="geometry" />
        </mxCell>
        <mxCell id="IqdXkhWM3qFWjXO3zx5M-6" value="GCP VM" style="text;html=1;strokeColor=none;fillColor=none;align=center;verticalAlign=middle;whiteSpace=wrap;rounded=0;" parent="1" vertex="1">
          <mxGeometry x="500" y="90" width="60" height="30" as="geometry" />
        </mxCell>
        <mxCell id="IqdXkhWM3qFWjXO3zx5M-7" value="POST /pdf" style="endArrow=classic;html=1;rounded=0;exitX=0.16;exitY=0.55;exitDx=0;exitDy=0;exitPerimeter=0;" parent="1" edge="1">
          <mxGeometry x="0.2621" width="50" height="50" relative="1" as="geometry">
            <mxPoint x="208" y="157.00300000000001" as="sourcePoint" />
            <mxPoint x="498" y="157" as="targetPoint" />
            <mxPoint as="offset" />
          </mxGeometry>
        </mxCell>
        <mxCell id="yK4O7YWxUvwEU787W2qR-1" value="GET /task/{token}" style="endArrow=classic;html=1;rounded=0;exitX=0.16;exitY=0.55;exitDx=0;exitDy=0;exitPerimeter=0;" parent="1" edge="1">
          <mxGeometry x="0.2345" y="-1" width="50" height="50" relative="1" as="geometry">
            <mxPoint x="199" y="173.00300000000001" as="sourcePoint" />
            <mxPoint x="489" y="173" as="targetPoint" />
            <mxPoint as="offset" />
          </mxGeometry>
        </mxCell>
        <mxCell id="yK4O7YWxUvwEU787W2qR-2" value="GET /html/{token}" style="endArrow=classic;html=1;rounded=0;exitX=0.16;exitY=0.55;exitDx=0;exitDy=0;exitPerimeter=0;" parent="1" edge="1">
          <mxGeometry x="0.2345" y="-1" width="50" height="50" relative="1" as="geometry">
            <mxPoint x="202" y="190.00300000000001" as="sourcePoint" />
            <mxPoint x="492" y="190" as="targetPoint" />
            <mxPoint as="offset" />
          </mxGeometry>
        </mxCell>
        <mxCell id="IqdXkhWM3qFWjXO3zx5M-8" value="upload&lt;br&gt;servlet" style="ellipse;shape=cloud;whiteSpace=wrap;html=1;fillColor=#f8cecc;strokeColor=#b85450;" parent="1" vertex="1">
          <mxGeometry x="180" y="140" width="100" height="66.66" as="geometry" />
        </mxCell>
        <mxCell id="IqdXkhWM3qFWjXO3zx5M-13" value="&lt;span style=&quot;&quot;&gt;convert file&lt;/span&gt;" style="endArrow=classic;startArrow=classic;html=1;rounded=0;exitX=0.5;exitY=0;exitDx=0;exitDy=0;entryX=0.5;entryY=0.935;entryDx=0;entryDy=0;entryPerimeter=0;labelBackgroundColor=#DAE8FC;labelBorderColor=none;fontColor=default;" parent="1" source="IqdXkhWM3qFWjXO3zx5M-3" target="IqdXkhWM3qFWjXO3zx5M-5" edge="1">
          <mxGeometry width="50" height="50" relative="1" as="geometry">
            <mxPoint x="490" y="256.66" as="sourcePoint" />
            <mxPoint x="530" y="210" as="targetPoint" />
          </mxGeometry>
        </mxCell>
        <mxCell id="IqdXkhWM3qFWjXO3zx5M-15" value="Tomcat server" style="text;html=1;strokeColor=none;fillColor=none;align=center;verticalAlign=middle;whiteSpace=wrap;rounded=0;" parent="1" vertex="1">
          <mxGeometry x="200" y="90" width="60" height="30" as="geometry" />
        </mxCell>
      </root>
    </mxGraphModel>
  </diagram>
</mxfile>
